<svg width="112" height="48" viewBox="0 0 112 48" fill="none" xmlns="http://www.w3.org/2000/svg">
<path d="M20 8L28 2V14L20 8Z" fill="#007BB6"/>
<path fill-rule="evenodd" clip-rule="evenodd" d="M62 7.2337L57.1863 6.8161L59.1463 4.84334C59.1033 4.76186 58.7811 4.49814 58.6731 4.41753C57.0349 3.19457 54.8783 3.23668 53.2694 4.42407C52.9906 4.62976 52.9028 4.72518 52.678 4.94759C52.4787 5.14475 52.139 5.61937 52.0071 5.86391C51.5488 6.71328 51.2874 7.70035 51.5165 8.83307C52.108 11.7577 55.2926 13.4876 58.083 12.0247C58.3582 11.8804 58.6581 11.6755 58.8873 11.4782C58.9356 11.4366 58.9586 11.4121 59.0042 11.3748L59.5423 10.7823C59.6752 10.6045 59.7839 10.4315 59.9013 10.2314L61.5412 10.231C61.4542 10.624 60.8976 11.4575 60.6401 11.7711C60.2597 12.2344 59.8925 12.5795 59.369 12.951C58.3206 13.6949 56.8729 14.0866 55.5357 13.9838C51.2831 13.6569 48.8015 9.29885 50.584 5.41343C50.9575 4.59914 51.527 3.92075 52.2072 3.36051C53.4251 2.35737 55.2063 1.83097 56.9345 2.11716C57.7693 2.2554 58.4588 2.52047 59.1618 2.95321C59.2962 3.03593 59.4042 3.11135 59.5256 3.20227L60.0351 3.61969C60.1005 3.67884 60.1259 3.73271 60.1992 3.77414C60.2762 3.73716 61.3638 2.6173 61.5361 2.45206C61.6287 2.36331 61.9247 2.04601 61.9996 2L62 7.23369V7.2337Z" fill="#007BB6"/>
<path d="M44 8L36 2V14L44 8Z" fill="#007BB6"/>
<path fill-rule="evenodd" clip-rule="evenodd" d="M4 7.89062V2H5V7.14062L12 1.89062V13.8906L5 8.64062V14H4V7.89062Z" fill="#007BB6"/>
<path d="M67 3.25942L76.9999 12.7405" stroke="#007BB6"/>
<path d="M67.2595 12.9998L76.7405 2.99987" stroke="#007BB6"/>
<path fill-rule="evenodd" clip-rule="evenodd" d="M101.672 1.94668C102.297 1.87066 102.951 1.98848 103.478 2.17519C103.736 2.2663 103.972 2.38384 104.185 2.51068C104.744 2.84254 105.141 3.24131 105.504 3.77378C106.382 5.06077 106.421 6.85473 105.614 8.18297C105.547 8.29301 105.467 8.39088 105.407 8.48836C105.333 8.60618 105.268 8.66848 105.177 8.77192C104.811 9.18502 104.537 9.41226 104.031 9.69495C103.598 9.93752 103.035 10.1229 102.46 10.1766C100.047 10.4019 98.1305 8.58599 97.9442 6.46025C97.8874 5.81107 97.9791 5.19056 98.1725 4.64661C98.3131 4.25109 98.6584 3.62732 98.9403 3.34474C99.4076 2.8764 99.5054 2.75899 100.089 2.42541C100.562 2.15557 101.056 2.02151 101.672 1.94668H101.672ZM97 5.67484V6.34132C97.0294 6.4313 97.0264 7.02133 97.2805 7.73423C97.5888 8.59928 97.9999 9.15599 98.6133 9.76239C98.8388 9.98532 99.2855 10.3232 99.5793 10.4761C100.388 10.8972 101.188 11.1627 102.304 11.1158C102.795 11.0953 103.3 10.994 103.718 10.8455C103.939 10.7669 104.122 10.6923 104.312 10.5991C104.409 10.5514 104.491 10.5035 104.583 10.4488C104.667 10.3987 104.772 10.3409 104.84 10.2945L105.147 10.5998C105.239 10.5698 105.79 9.98273 105.871 9.9026L106.586 9.18226C106.541 9.07777 106.339 8.94899 106.287 8.8556L106.593 8.32109C106.889 7.74527 107.081 7.00926 107.116 6.32932C107.169 5.30995 106.938 4.45936 106.486 3.60049L106.161 3.08622C106.029 2.91287 105.918 2.77546 105.782 2.62489C105.519 2.33548 105.239 2.10449 104.876 1.84969C104.803 1.79812 104.707 1.74038 104.618 1.68852C104.539 1.64233 104.437 1.58766 104.345 1.5418C103.948 1.34465 103.551 1.19757 103.103 1.10477L102.356 1H101.674C101.67 1.0022 101.665 1.00406 101.661 1.0052L101.537 1.0265C100.692 1.10937 99.7862 1.44107 99.1124 1.94624C98.8735 2.12527 98.6957 2.26514 98.4821 2.4822C97.9038 3.06983 97.4189 3.82579 97.1858 4.68495C97.1034 4.98857 97.0544 5.24231 97.0253 5.55004L97 5.67482V5.67484Z" fill="#007BB6"/>
<path fill-rule="evenodd" clip-rule="evenodd" d="M109.575 14.9986H109.942C109.994 14.9723 110.076 14.9632 110.137 14.9444C110.204 14.9237 110.26 14.8969 110.324 14.8666C110.624 14.7229 110.877 14.4004 110.962 14.0748L111 13.965V13.5737L110.977 13.5126C110.972 13.4963 110.969 13.4787 110.965 13.4618C110.914 13.2469 110.801 13.0594 110.649 12.9076C110.333 12.5925 109.932 12.2552 109.595 11.9392C109.351 11.711 108.775 11.1656 108.551 10.9767C108.341 10.8006 107.042 9.56403 106.971 9.53125C106.896 9.57181 106.355 10.1346 106.245 10.2433L105.568 10.92C105.54 10.9522 105.553 10.9325 105.533 10.9698C105.567 11.0431 105.711 11.1757 105.779 11.2449L106.5 12.0325C106.871 12.4536 107.341 12.9258 107.708 13.3441C107.925 13.5919 108.254 13.9199 108.431 14.1297C108.502 14.2137 108.602 14.329 108.677 14.3982C108.864 14.573 108.877 14.6975 109.204 14.866C109.395 14.9639 109.388 14.9346 109.527 14.9784L109.575 14.9986H109.575Z" fill="#007BB6"/>
<path fill-rule="evenodd" clip-rule="evenodd" d="M92 1H91V3H81V4H91V5H92V4H95V3H92V1ZM85 8H81V9H85V10H86V9H95V8H86V6H85V8ZM89 11V13H95V14H89V15H88V14H81V13H88V11H89Z" fill="#007BB6"/>
<path d="M20 24L28 18V30L20 24Z" fill="#B9B9B9"/>
<path fill-rule="evenodd" clip-rule="evenodd" d="M62 23.2337L57.1863 22.8161L59.1463 20.8433C59.1033 20.7619 58.7811 20.4981 58.6731 20.4175C57.0349 19.1946 54.8783 19.2367 53.2694 20.4241C52.9906 20.6298 52.9028 20.7252 52.678 20.9476C52.4787 21.1447 52.139 21.6194 52.0071 21.8639C51.5488 22.7133 51.2874 23.7004 51.5165 24.8331C52.108 27.7577 55.2926 29.4876 58.083 28.0247C58.3582 27.8804 58.6581 27.6755 58.8873 27.4782C58.9356 27.4366 58.9586 27.4121 59.0042 27.3748L59.5423 26.7823C59.6752 26.6045 59.7839 26.4315 59.9013 26.2314L61.5412 26.231C61.4542 26.624 60.8976 27.4575 60.6401 27.7711C60.2597 28.2344 59.8925 28.5795 59.369 28.951C58.3206 29.6949 56.8729 30.0866 55.5357 29.9838C51.2831 29.6569 48.8015 25.2988 50.584 21.4134C50.9575 20.5991 51.527 19.9208 52.2072 19.3605C53.4251 18.3574 55.2063 17.831 56.9345 18.1172C57.7693 18.2554 58.4588 18.5205 59.1618 18.9532C59.2962 19.0359 59.4042 19.1113 59.5256 19.2023L60.0351 19.6197C60.1005 19.6788 60.1259 19.7327 60.1992 19.7741C60.2762 19.7372 61.3638 18.6173 61.5361 18.4521C61.6287 18.3633 61.9247 18.046 61.9996 18L62 23.2337V23.2337Z" fill="#B9B9B9"/>
<path d="M44 24L36 18V30L44 24Z" fill="#B9B9B9"/>
<path fill-rule="evenodd" clip-rule="evenodd" d="M4 23.8906V18H5V23.1406L12 17.8906V29.8906L5 24.6406V30H4V23.8906Z" fill="#B9B9B9"/>
<path d="M67 19.2594L76.9999 28.7405" stroke="#B9B9B9"/>
<path d="M67.2595 28.9998L76.7405 18.9999" stroke="#B9B9B9"/>
<path fill-rule="evenodd" clip-rule="evenodd" d="M101.672 17.9467C102.297 17.8707 102.951 17.9885 103.478 18.1752C103.736 18.2663 103.972 18.3838 104.185 18.5107C104.744 18.8425 105.141 19.2413 105.504 19.7738C106.382 21.0608 106.421 22.8547 105.614 24.183C105.547 24.293 105.467 24.3909 105.407 24.4884C105.333 24.6062 105.268 24.6685 105.177 24.7719C104.811 25.185 104.537 25.4123 104.031 25.695C103.598 25.9375 103.035 26.1229 102.46 26.1766C100.047 26.4019 98.1305 24.586 97.9442 22.4602C97.8874 21.8111 97.9791 21.1906 98.1725 20.6466C98.3131 20.2511 98.6584 19.6273 98.9403 19.3447C99.4076 18.8764 99.5054 18.759 100.089 18.4254C100.562 18.1556 101.056 18.0215 101.672 17.9467H101.672ZM97 21.6748V22.3413C97.0294 22.4313 97.0264 23.0213 97.2805 23.7342C97.5888 24.5993 97.9999 25.156 98.6133 25.7624C98.8388 25.9853 99.2855 26.3232 99.5793 26.4761C100.388 26.8972 101.188 27.1627 102.304 27.1158C102.795 27.0953 103.3 26.994 103.718 26.8455C103.939 26.7669 104.122 26.6923 104.312 26.5991C104.409 26.5514 104.491 26.5035 104.583 26.4488C104.667 26.3987 104.772 26.3409 104.84 26.2945L105.147 26.5998C105.239 26.5698 105.79 25.9827 105.871 25.9026L106.586 25.1823C106.541 25.0778 106.339 24.949 106.287 24.8556L106.593 24.3211C106.889 23.7453 107.081 23.0093 107.116 22.3293C107.169 21.31 106.938 20.4594 106.486 19.6005L106.161 19.0862C106.029 18.9129 105.918 18.7755 105.782 18.6249C105.519 18.3355 105.239 18.1045 104.876 17.8497C104.803 17.7981 104.707 17.7404 104.618 17.6885C104.539 17.6423 104.437 17.5877 104.345 17.5418C103.948 17.3446 103.551 17.1976 103.103 17.1048L102.356 17H101.674C101.67 17.0022 101.665 17.0041 101.661 17.0052L101.537 17.0265C100.692 17.1094 99.7862 17.4411 99.1124 17.9462C98.8735 18.1253 98.6957 18.2651 98.4821 18.4822C97.9038 19.0698 97.4189 19.8258 97.1858 20.6849C97.1034 20.9886 97.0544 21.2423 97.0253 21.55L97 21.6748V21.6748Z" fill="#B9B9B9"/>
<path fill-rule="evenodd" clip-rule="evenodd" d="M109.575 30.9986H109.942C109.994 30.9723 110.076 30.9632 110.137 30.9444C110.204 30.9237 110.26 30.8969 110.324 30.8666C110.624 30.7229 110.877 30.4004 110.962 30.0748L111 29.965V29.5737L110.977 29.5126C110.972 29.4963 110.969 29.4787 110.965 29.4618C110.914 29.2469 110.801 29.0594 110.649 28.9076C110.333 28.5925 109.932 28.2552 109.595 27.9392C109.351 27.711 108.775 27.1656 108.551 26.9767C108.341 26.8006 107.042 25.564 106.971 25.5312C106.896 25.5718 106.355 26.1346 106.245 26.2433L105.568 26.92C105.54 26.9522 105.553 26.9325 105.533 26.9698C105.567 27.0431 105.711 27.1757 105.779 27.2449L106.5 28.0325C106.871 28.4536 107.341 28.9258 107.708 29.3441C107.925 29.5919 108.254 29.9199 108.431 30.1297C108.502 30.2137 108.602 30.329 108.677 30.3982C108.864 30.573 108.877 30.6975 109.204 30.866C109.395 30.9639 109.388 30.9346 109.527 30.9784L109.575 30.9986H109.575Z" fill="#B9B9B9"/>
<path fill-rule="evenodd" clip-rule="evenodd" d="M92 17H91V19H81V20H91V21H92V20H95V19H92V17ZM85 24H81V25H85V26H86V25H95V24H86V22H85V24ZM89 27V29H95V30H89V31H88V30H81V29H88V27H89Z" fill="#B9B9B9"/>
<path d="M20 40L28 34V46L20 40Z" fill="#727273"/>
<path fill-rule="evenodd" clip-rule="evenodd" d="M62 39.2337L57.1863 38.8161L59.1463 36.8433C59.1033 36.7619 58.7811 36.4981 58.6731 36.4175C57.0349 35.1946 54.8783 35.2367 53.2694 36.4241C52.9906 36.6298 52.9028 36.7252 52.678 36.9476C52.4787 37.1447 52.139 37.6194 52.0071 37.8639C51.5488 38.7133 51.2874 39.7004 51.5165 40.8331C52.108 43.7577 55.2926 45.4876 58.083 44.0247C58.3582 43.8804 58.6581 43.6755 58.8873 43.4782C58.9356 43.4366 58.9586 43.4121 59.0042 43.3748L59.5423 42.7823C59.6752 42.6045 59.7839 42.4315 59.9013 42.2314L61.5412 42.231C61.4542 42.624 60.8976 43.4575 60.6401 43.7711C60.2597 44.2344 59.8925 44.5795 59.369 44.951C58.3206 45.6949 56.8729 46.0866 55.5357 45.9838C51.2831 45.6569 48.8015 41.2988 50.584 37.4134C50.9575 36.5991 51.527 35.9208 52.2072 35.3605C53.4251 34.3574 55.2063 33.831 56.9345 34.1172C57.7693 34.2554 58.4588 34.5205 59.1618 34.9532C59.2962 35.0359 59.4042 35.1113 59.5256 35.2023L60.0351 35.6197C60.1005 35.6788 60.1259 35.7327 60.1992 35.7741C60.2762 35.7372 61.3638 34.6173 61.5361 34.4521C61.6287 34.3633 61.9247 34.046 61.9996 34L62 39.2337V39.2337Z" fill="#727273"/>
<path d="M44 40L36 34V46L44 40Z" fill="#727273"/>
<path fill-rule="evenodd" clip-rule="evenodd" d="M4 39.8906V34H5V39.1406L12 33.8906V45.8906L5 40.6406V46H4V39.8906Z" fill="#727273"/>
<path d="M67 35.2594L76.9999 44.7405" stroke="#727273"/>
<path d="M67.2595 44.9998L76.7405 34.9999" stroke="#727273"/>
<path fill-rule="evenodd" clip-rule="evenodd" d="M101.672 33.9467C102.297 33.8707 102.951 33.9885 103.478 34.1752C103.736 34.2663 103.972 34.3838 104.185 34.5107C104.744 34.8425 105.141 35.2413 105.504 35.7738C106.382 37.0608 106.421 38.8547 105.614 40.183C105.547 40.293 105.467 40.3909 105.407 40.4884C105.333 40.6062 105.268 40.6685 105.177 40.7719C104.811 41.185 104.537 41.4123 104.031 41.695C103.598 41.9375 103.035 42.1229 102.46 42.1766C100.047 42.4019 98.1305 40.586 97.9442 38.4602C97.8874 37.8111 97.9791 37.1906 98.1725 36.6466C98.3131 36.2511 98.6584 35.6273 98.9403 35.3447C99.4076 34.8764 99.5054 34.759 100.089 34.4254C100.562 34.1556 101.056 34.0215 101.672 33.9467H101.672ZM97 37.6748V38.3413C97.0294 38.4313 97.0264 39.0213 97.2805 39.7342C97.5888 40.5993 97.9999 41.156 98.6133 41.7624C98.8388 41.9853 99.2855 42.3232 99.5793 42.4761C100.388 42.8972 101.188 43.1627 102.304 43.1158C102.795 43.0953 103.3 42.994 103.718 42.8455C103.939 42.7669 104.122 42.6923 104.312 42.5991C104.409 42.5514 104.491 42.5035 104.583 42.4488C104.667 42.3987 104.772 42.3409 104.84 42.2945L105.147 42.5998C105.239 42.5698 105.79 41.9827 105.871 41.9026L106.586 41.1823C106.541 41.0778 106.339 40.949 106.287 40.8556L106.593 40.3211C106.889 39.7453 107.081 39.0093 107.116 38.3293C107.169 37.31 106.938 36.4594 106.486 35.6005L106.161 35.0862C106.029 34.9129 105.918 34.7755 105.782 34.6249C105.519 34.3355 105.239 34.1045 104.876 33.8497C104.803 33.7981 104.707 33.7404 104.618 33.6885C104.539 33.6423 104.437 33.5877 104.345 33.5418C103.948 33.3446 103.551 33.1976 103.103 33.1048L102.356 33H101.674C101.67 33.0022 101.665 33.0041 101.661 33.0052L101.537 33.0265C100.692 33.1094 99.7862 33.4411 99.1124 33.9462C98.8735 34.1253 98.6957 34.2651 98.4821 34.4822C97.9038 35.0698 97.4189 35.8258 97.1858 36.6849C97.1034 36.9886 97.0544 37.2423 97.0253 37.55L97 37.6748V37.6748Z" fill="#727273"/>
<path fill-rule="evenodd" clip-rule="evenodd" d="M109.575 46.9986H109.942C109.994 46.9723 110.076 46.9632 110.137 46.9444C110.204 46.9237 110.26 46.8969 110.324 46.8666C110.624 46.7229 110.877 46.4004 110.962 46.0748L111 45.965V45.5737L110.977 45.5126C110.972 45.4963 110.969 45.4787 110.965 45.4618C110.914 45.2469 110.801 45.0594 110.649 44.9076C110.333 44.5925 109.932 44.2552 109.595 43.9392C109.351 43.711 108.775 43.1656 108.551 42.9767C108.341 42.8006 107.042 41.564 106.971 41.5312C106.896 41.5718 106.355 42.1346 106.245 42.2433L105.568 42.92C105.54 42.9522 105.553 42.9325 105.533 42.9698C105.567 43.0431 105.711 43.1757 105.779 43.2449L106.5 44.0325C106.871 44.4536 107.341 44.9258 107.708 45.3441C107.925 45.5919 108.254 45.9199 108.431 46.1297C108.502 46.2137 108.602 46.329 108.677 46.3982C108.864 46.573 108.877 46.6975 109.204 46.866C109.395 46.9639 109.388 46.9346 109.527 46.9784L109.575 46.9986H109.575Z" fill="#727273"/>
<path fill-rule="evenodd" clip-rule="evenodd" d="M92 33H91V35H81V36H91V37H92V36H95V35H92V33ZM85 40H81V41H85V42H86V41H95V40H86V38H85V40ZM89 43V45H95V46H89V47H88V46H81V45H88V43H89Z" fill="#727273"/>
</svg>
